<?xml version="1.0" encoding="UTF-8"?>
<svg width="36px" height="37px" viewBox="0 0 36 37" version="1.1" xmlns="http://www.w3.org/2000/svg" xmlns:xlink="http://www.w3.org/1999/xlink">
    <title>Group</title>
    <g id="Page-1" stroke="none" stroke-width="1" fill="none" fill-rule="evenodd">
        <g id="Home" transform="translate(-86.000000, -68.000000)">
            <g id="Group" transform="translate(86.000000, 68.000000)">
                <path d="M9.46713868,8 L24.3787031,8 C25.4832726,8 26.3787031,8.8954305 26.3787031,10 C26.3787031,10.1784534 26.3548194,10.3561041 26.307688,10.528221 L19.4618462,35.528221 C19.2238463,36.3973611 18.4339987,37 17.5328613,37 L2.62129689,37 C1.5167274,37 0.621296895,36.1045695 0.621296895,35 C0.621296895,34.8215466 0.645180627,34.6438959 0.69231204,34.471779 L7.53815382,9.471779 C7.77615366,8.60263886 8.56600135,8 9.46713868,8 Z" id="Rectangle" fill="#F8961F"></path>
                <path d="M18.4671387,0 L33.3787031,0 C34.4832726,2.20329267e-15 35.3787031,0.8954305 35.3787031,2 C35.3787031,2.17845338 35.3548194,2.35610407 35.307688,2.528221 L28.4618462,27.528221 C28.2238463,28.3973611 27.4339987,29 26.5328613,29 L11.6212969,29 C10.5167274,29 9.62129689,28.1045695 9.62129689,27 C9.62129689,26.8215466 9.64518063,26.6438959 9.69231204,26.471779 L16.5381538,1.471779 C16.7761537,0.602638865 17.5660013,-9.44686783e-16 18.4671387,0 Z" id="Rectangle-Copy-2" fill="#FFFFFF" opacity="0.7"></path>
            </g>
        </g>
    </g>
</svg>