<?xml version="1.0" encoding="utf-8"?>
<!-- Generator: Adobe Illustrator 24.3.0, SVG Export Plug-In . SVG Version: 6.00 Build 0)  -->
<svg version="1.1" id="Layer_1" xmlns="http://www.w3.org/2000/svg" xmlns:xlink="http://www.w3.org/1999/xlink" x="0px" y="0px"
	 viewBox="0 0 571.16 360.28" enable-background="new 0 0 571.16 360.28" xml:space="preserve">
<g>
	<g>
		<g>
			<g>
				<g>
					<defs>
						<path id="SVGID_1_" d="M557.68,360.14H13.48c-7.34,0-13.34-6-13.34-13.34V13.48c0-7.34,6-13.34,13.34-13.34h544.2
							c7.34,0,13.34,6,13.34,13.34V346.8C571.02,354.14,565.02,360.14,557.68,360.14z"/>
					</defs>
					<clipPath id="SVGID_2_">
						<use xlink:href="#SVGID_1_"  overflow="visible"/>
					</clipPath>
				</g>
			</g>
		</g>
		<g>
			<g>
				<path fill="#F8951D" stroke="#E0E1E2" stroke-width="0.2835" stroke-miterlimit="10" d="M557.68,360.14H13.48
					c-7.34,0-13.34-6-13.34-13.34V13.48c0-7.34,6-13.34,13.34-13.34h544.2c7.34,0,13.34,6,13.34,13.34V346.8
					C571.02,354.14,565.02,360.14,557.68,360.14z"/>
				<g>
					<defs>
						<path id="SVGID_3_" d="M557.68,360.14H13.48c-7.34,0-13.34-6-13.34-13.34V13.48c0-7.34,6-13.34,13.34-13.34h544.2
							c7.34,0,13.34,6,13.34,13.34V346.8C571.02,354.14,565.02,360.14,557.68,360.14z"/>
					</defs>
					<clipPath id="SVGID_4_">
						<use xlink:href="#SVGID_3_"  overflow="visible"/>
					</clipPath>
					
						<line clip-path="url(#SVGID_4_)" fill="none" stroke="#FFFFFF" stroke-width="0.2835" stroke-miterlimit="10" x1="-138.86" y1="76.62" x2="617.12" y2="76.62"/>
					
						<line clip-path="url(#SVGID_4_)" fill="none" stroke="#FFFFFF" stroke-width="0.9921" stroke-miterlimit="10" x1="-138.86" y1="83.58" x2="617.12" y2="83.58"/>
					
						<line clip-path="url(#SVGID_4_)" fill="none" stroke="#FFFFFF" stroke-width="2.8346" stroke-miterlimit="10" x1="-138.86" y1="108.97" x2="617.12" y2="108.97"/>
					
						<line clip-path="url(#SVGID_4_)" fill="none" stroke="#FFFFFF" stroke-width="8.5039" stroke-miterlimit="10" x1="-138.86" y1="154.51" x2="617.12" y2="154.51"/>
					
						<path opacity="0.1" clip-path="url(#SVGID_4_)" fill="none" stroke="#FFFFFF" stroke-width="8.5039" stroke-miterlimit="10" d="
						M617.12,156.25"/>
					
						<path opacity="0.1" clip-path="url(#SVGID_4_)" fill="none" stroke="#FFFFFF" stroke-width="8.5039" stroke-miterlimit="10" d="
						M-44.71,299.57"/>
					
						<path opacity="0.1" clip-path="url(#SVGID_4_)" fill="none" stroke="#FFFFFF" stroke-width="8.5039" stroke-miterlimit="10" d="
						M617.12,156.25"/>
					
						<path opacity="0.1" clip-path="url(#SVGID_4_)" fill="none" stroke="#FFFFFF" stroke-width="8.5039" stroke-miterlimit="10" d="
						M53.31,487.53"/>
				</g>
			</g>
		</g>
		<g>
			<g>
				<g>
					<defs>
						<path id="SVGID_5_" d="M557.68,360.14H13.48c-7.34,0-13.34-6-13.34-13.34V13.48c0-7.34,6-13.34,13.34-13.34h544.2
							c7.34,0,13.34,6,13.34,13.34V346.8C571.02,354.14,565.02,360.14,557.68,360.14z"/>
					</defs>
					<clipPath id="SVGID_6_">
						<use xlink:href="#SVGID_5_"  overflow="visible"/>
					</clipPath>
				</g>
			</g>
		</g>
	</g>
	<g>
		<g>
			<path fill="#FFFFFF" d="M354.88,52.27V33.23h-8.84v-4.76h23.8v4.76H361v19.04H354.88z"/>
			<path fill="#FFFFFF" d="M374.98,30.98c0.78-1.87,1.77-2.79,4.69-2.79c2.14,0,3.71,0.48,4.66,2.79l8.91,21.29h-6.43l-2.14-5.44
				h-10.03l-2.14,5.44h-6.39L374.98,30.98z M376.14,42.2h7.04l-3.03-7.55c-0.14-0.37-0.24-0.75-0.48-0.75s-0.37,0.37-0.51,0.75
				L376.14,42.2z"/>
			<path fill="#FFFFFF" d="M394.43,52.27V32.14c0-2.55,1.39-3.67,3.6-3.67h12.65c5.27,0,6.43,3.3,6.43,8.06s-1.16,8.13-6.43,8.13
				h-10.13v7.62H394.43z M407.52,39.89c2.55,0,3.33-0.99,3.33-3.37c0-2.38-0.78-3.3-3.33-3.3h-5.37c-1.19,0-1.6,0.41-1.6,1.6v5.07
				H407.52z"/>
			<path fill="#FFFFFF" d="M421.02,49.68h13.29c1.8,0,2.52-1.26,2.52-3.33c0-1.26-0.27-2.52-2.65-3.3l-9.42-3.13
				c-2.86-0.95-4.08-2.58-4.08-5.88c0-3.4,1.63-5.58,5.41-5.58h12.89v2.58h-12.31c-1.8,0-2.69,0.85-2.69,3.06
				c0,1.29,0.14,2.55,2.24,3.26l8.98,2.99c3.16,1.05,4.93,2.24,4.93,5.98c0,3.23-1.26,5.92-4.93,5.92h-14.18V49.68z"/>
			<path fill="#FFFFFF" d="M443.7,52.27v-23.8h3.16v23.8H443.7z"/>
			<path fill="#FFFFFF" d="M471.85,49.17c0,2.21-1.09,3.09-3.13,3.09h-8.64c-7.72,0-9.49-5.27-9.49-11.9s1.77-11.9,9.93-11.9h10.78
				v2.58h-9.72c-5.95,0-7.68,2.86-7.68,9.32s1.73,9.32,7.21,9.32h6.02c1.19,0,1.56-0.41,1.56-1.6v-7.11h3.16V49.17z"/>
			<path fill="#FFFFFF" d="M497.05,49.55c0,2.01-1.16,2.99-2.86,2.99c-1.29,0-2.21-0.41-3.13-1.87l-11.22-17.95
				c-0.24-0.41-0.44-0.58-0.68-0.58c-0.14,0-0.48,0.14-0.48,0.68v19.45h-3.09V31.02c0-2.18,1.6-2.82,2.92-2.82
				c1.73,0,2.48,0.82,3.06,1.73l11.32,18.09c0.17,0.27,0.31,0.58,0.65,0.58c0.41,0,0.41-0.37,0.41-0.58V28.46h3.09V49.55z"/>
			<path fill="#FFFFFF" d="M504.8,52.27c-2.07,0-3.33-0.99-3.33-3.37V31.83c0-2.55,1.26-3.37,3.33-3.37h14.72v2.58h-13.33
				c-1.33,0-1.56,0.41-1.56,1.6v6.15h14.55v2.58h-14.55v6.66c0,1.19,0.24,1.63,1.56,1.63h13.46v2.58H504.8z"/>
			<path fill="#FFFFFF" d="M523.06,32.07c0-2.55,1.26-3.6,3.5-3.6h11.02c4.39,0,5.78,2.79,5.78,7.21c0,4.56-1.29,7.58-5.41,7.58
				h-3.84v0.17l9.76,8.84h-4.22l-9.11-8.36c-0.44-0.41-0.88-0.92-0.88-1.5v-0.54c0-0.71,0.51-1.19,1.43-1.19h5.81
				c2.89,0,3.16-2.11,3.16-5c0-2.96-0.48-4.62-3.67-4.62h-8.47c-1.09,0-1.7,0.34-1.7,1.63v19.59h-3.16V32.07z"/>
		</g>
	</g>
</g>
</svg>
